<svg width="24" height="16" viewBox="0 0 24 16" fill="none" xmlns="http://www.w3.org/2000/svg">
<path d="M9.8738 7.232C10.3718 6.9648 10.7484 6.6672 11.0064 6.3456C11.4654 5.7664 11.6919 4.9984 11.6919 4.0464C11.6919 3.12 11.4654 2.328 11.0124 1.664C10.2563 0.5824 8.97673 0.0288 7.16758 0H0V15.6048H6.68304C7.4361 15.6048 8.13366 15.536 8.77871 15.3952C9.42376 15.2528 9.98181 14.992 10.4543 14.6112C10.8744 14.28 11.2254 13.8688 11.5044 13.384C11.9455 12.6512 12.166 11.8208 12.166 10.896C12.166 10 11.9725 9.2368 11.5884 8.6096C11.1999 7.9824 10.6299 7.5232 9.8738 7.232ZM2.95674 2.7104H6.185C6.89456 2.7104 7.47961 2.792 7.93864 2.9536C8.46969 3.1888 8.73521 3.6672 8.73521 4.3968C8.73521 5.0512 8.53269 5.5088 8.13216 5.7664C7.72863 6.024 7.20508 6.1536 6.56303 6.1536H2.95674V2.7104ZM8.06165 12.6224C7.70462 12.8064 7.20208 12.8976 6.55853 12.8976H2.95674V8.736H6.60804C7.24409 8.7408 7.73913 8.8304 8.09316 8.9984C8.72321 9.3024 9.03673 9.8592 9.03673 10.6736C9.03673 11.6336 8.71271 12.28 8.06165 12.6224Z" fill="white"/>
<path d="M21.6933 0.728H15.3372V2.6704H21.6933V0.728Z" fill="white"/>
<path d="M23.9014 8.3936C23.7694 7.4896 23.4784 6.6944 23.0254 6.008C22.5288 5.2304 21.8988 4.6608 21.1322 4.3008C20.3687 3.9392 19.5091 3.7584 18.552 3.76C16.9454 3.76 15.6403 4.296 14.6307 5.36C13.6241 6.4272 13.1201 7.9616 13.1201 9.9616C13.1201 12.0944 13.6766 13.6352 14.7957 14.5808C15.9103 15.528 17.1974 16 18.6585 16C20.4272 16 21.8028 15.4384 22.7853 14.3184C23.4139 13.6112 23.7694 12.9152 23.8474 12.232H20.9192C20.7497 12.5696 20.5532 12.8336 20.3281 13.0256C19.9201 13.3776 19.3891 13.5536 18.738 13.5536C18.1185 13.5536 17.5934 13.408 17.1554 13.1184C16.4323 12.6544 16.0543 11.8416 16.0063 10.6848H23.9974C24.0094 9.688 23.9794 8.9216 23.9014 8.3936ZM16.0783 8.6928C16.1833 7.9424 16.4383 7.3472 16.8434 6.9072C17.2484 6.4688 17.8214 6.248 18.555 6.2464C19.2316 6.2464 19.7971 6.4528 20.2576 6.8672C20.7122 7.2848 20.9687 7.8912 21.0212 8.6928H16.0783Z" fill="white"/>
</svg>
