<svg width="735" height="735" viewBox="0 0 735 735" fill="none" xmlns="http://www.w3.org/2000/svg">
<path d="M319.24 609.32C312.544 588.718 302.759 574.707 299.771 570.175C299.771 570.175 299.771 570.176 299.771 570.073C184.5 557.506 93.3328 465 82.7225 349.111C82.0014 341.694 81.6926 334.174 81.6926 326.552C54.4973 326.552 27.3013 326.552 0.00292607 326.552C-0.100087 351.069 2.47539 384.856 14.3219 422.559C46.0498 523.511 129.387 607.775 230.546 638.781C260.934 648.156 293.178 653.1 326.554 653.1C326.451 642.181 324.905 626.729 319.24 609.32Z" fill="#171717"/>
<path d="M164.72 299.769C164.823 299.769 164.823 299.769 164.72 299.769C177.391 184.498 269.897 93.3325 385.683 82.7222C393.1 82.0011 400.62 81.6923 408.242 81.6923C408.242 54.497 408.242 27.3012 408.242 0.00292606C383.725 -0.100086 350.041 2.47537 312.235 14.3218C211.283 46.0496 127.018 129.387 96.0113 230.545C86.6371 260.933 81.6926 293.176 81.6926 326.552C92.715 326.346 108.27 324.801 125.576 319.135C146.281 312.542 160.187 302.859 164.72 299.769Z" fill="#171717"/>
<path d="M720.578 312.339C688.85 211.387 605.513 127.123 504.354 96.1162C473.965 86.742 441.722 81.7973 408.345 81.7973C408.551 92.8196 410.096 108.375 415.762 125.681C422.458 146.283 432.244 160.292 435.232 164.825C435.232 164.825 435.232 164.825 435.232 164.928C550.503 177.495 641.67 270.001 652.28 385.89C653.001 393.307 653.31 400.826 653.31 408.449C680.506 408.449 707.702 408.449 735 408.449C735 383.726 732.424 350.042 720.578 312.339Z" fill="#171717"/>
<path d="M570.179 435.231C557.509 550.502 465.002 641.669 349.216 652.279C341.799 653 334.28 653.309 326.657 653.309C326.657 680.504 326.657 707.699 326.657 734.997C351.174 735.1 384.858 732.526 422.664 720.679C523.617 688.952 607.881 605.613 638.888 504.455C648.262 474.067 653.207 441.824 653.207 408.448C642.184 408.654 626.629 410.199 609.323 415.865C588.721 422.458 574.712 432.141 570.179 435.231Z" fill="#171717"/>
<path d="M344.788 571.618C358.385 571.721 377.133 570.278 398.148 563.686C454.187 546.07 501.058 499.716 518.261 443.574C523.412 426.68 526.193 408.755 526.193 390.213C541.336 390.213 556.478 390.213 571.518 390.213C571.621 376.615 570.18 357.868 563.587 336.853C545.972 280.815 499.615 233.944 443.473 216.74C426.579 211.59 408.655 208.808 390.112 208.808C390.112 193.666 390.112 178.522 390.112 163.483C376.515 163.38 357.767 164.822 336.752 171.415C280.713 189.03 233.842 235.386 216.639 291.528C211.488 308.422 208.707 326.345 208.707 344.887C193.564 344.887 178.524 344.887 163.381 344.887C163.278 358.485 164.72 377.234 171.313 398.248C188.928 454.287 235.284 501.158 291.426 518.361C308.321 523.512 326.245 526.293 344.788 526.293C344.788 541.333 344.788 556.475 344.788 571.618Z" fill="#171717"/>
</svg>
