<svg width="20" height="20" viewBox="0 0 39 39" fill="none" xmlns="http://www.w3.org/2000/svg">
<path d="M16.9392 32.3313C16.584 31.2381 16.0647 30.4947 15.9062 30.2542C15.9062 30.2542 15.9062 30.2542 15.9062 30.2488C9.78979 29.5819 4.95236 24.6734 4.38936 18.5242C4.3511 18.1307 4.33471 17.7317 4.33471 17.3272C2.89169 17.3272 1.44864 17.3272 0.000155261 17.3272C-0.00531073 18.6281 0.131347 20.4209 0.759935 22.4215C2.44346 27.7781 6.86544 32.2493 12.233 33.8945C13.8455 34.3919 15.5564 34.6543 17.3274 34.6543C17.3219 34.0749 17.2399 33.255 16.9392 32.3313Z" fill="white"/>
<path d="M8.74025 15.9061C8.74571 15.9061 8.74571 15.9061 8.74025 15.9061C9.41256 9.78968 14.3211 4.95233 20.4648 4.38934C20.8584 4.35108 21.2574 4.33469 21.6618 4.33469C21.6618 2.89168 21.6618 1.44864 21.6618 0.00015526C20.3609 -0.0053107 18.5736 0.131346 16.5676 0.759932C11.2109 2.44345 6.73974 6.86541 5.09448 12.233C4.59707 13.8454 4.33471 15.5563 4.33471 17.3272C4.91957 17.3163 5.74493 17.2343 6.66321 16.9337C7.76187 16.5839 8.49974 16.0701 8.74025 15.9061Z" fill="white"/>
<path d="M38.2347 16.5731C36.5512 11.2164 32.1292 6.7453 26.7616 5.10004C25.1492 4.60264 23.4383 4.34026 21.6673 4.34026C21.6782 4.92512 21.7602 5.75049 22.0608 6.66877C22.4161 7.76196 22.9354 8.50529 23.0939 8.7458C23.0939 8.7458 23.0939 8.7458 23.0939 8.75127C29.2104 9.41812 34.0478 14.3266 34.6108 20.4758C34.6491 20.8694 34.6654 21.2683 34.6654 21.6728C36.1085 21.6728 37.5515 21.6728 39 21.6728C39 20.361 38.8633 18.5736 38.2347 16.5731Z" fill="white"/>
<path d="M30.2544 23.0939C29.5821 29.2103 24.6736 34.0477 18.5298 34.6107C18.1363 34.649 17.7373 34.6654 17.3328 34.6654C17.3328 36.1084 17.3328 37.5514 17.3328 38.9998C18.6337 39.0053 20.4211 38.8687 22.4271 38.2401C27.7837 36.5566 32.2549 32.1346 33.9002 26.767C34.3976 25.1546 34.66 23.4437 34.66 21.6728C34.0751 21.6837 33.2497 21.7657 32.3314 22.0663C31.2382 22.4161 30.4949 22.9299 30.2544 23.0939Z" fill="white"/>
<path d="M18.2949 30.3307C19.0164 30.3362 20.0111 30.2597 21.1262 29.9098C24.0997 28.9752 26.5867 26.5155 27.4996 23.5366C27.7729 22.6402 27.9205 21.6891 27.9205 20.7052C28.724 20.7052 29.5274 20.7052 30.3254 20.7052C30.3309 19.9837 30.2544 18.9889 29.9046 17.8738C28.9699 14.9004 26.5102 12.4133 23.5312 11.5005C22.6348 11.2272 21.6837 11.0796 20.6998 11.0796C20.6998 10.2761 20.6998 9.47262 20.6998 8.67459C19.9783 8.66912 18.9836 8.74566 17.8685 9.09548C14.895 10.0302 12.408 12.4899 11.4951 15.4688C11.2218 16.3652 11.0742 17.3163 11.0742 18.3001C10.2707 18.3001 9.47269 18.3001 8.66919 18.3001C8.66373 19.0217 8.74026 20.0165 9.09008 21.1315C10.0248 24.105 12.4845 26.5921 15.4634 27.5049C16.3599 27.7782 17.311 27.9258 18.2949 27.9258C18.2949 28.7238 18.2949 29.5272 18.2949 30.3307Z" fill="white"/>
</svg>
