<svg width="27" height="30" viewBox="0 0 32 35" fill="none" xmlns="http://www.w3.org/2000/svg">
<path d="M0.00443119 17.0296C5.76437 11.3392 11.4884 5.6843 17.2421 -6.38726e-06C18.6688 1.40944 20.0768 2.80051 21.5419 4.24792C18.2994 7.45131 15.0457 10.6657 11.6978 13.9732C18.3911 13.9671 24.932 13.961 31.4505 13.9548C31.448 16.05 31.4468 18.0203 31.4443 20.0665C24.9543 20.0567 18.4097 20.0481 11.6966 20.0383C15.0594 23.3605 18.3006 26.5627 21.5729 29.7955C20.1091 31.2416 18.6911 32.6425 17.2483 34.0679C11.507 28.3958 5.78049 22.7384 0.00195545 17.0296L0.00443119 17.0296Z" fill="#696969"/>
</svg>
