<svg width="16" height="15" viewBox="0 0 18 17" fill="none" xmlns="http://www.w3.org/2000/svg">
<path d="M8.99773 16.9987C5.99116 13.885 3.00334 10.7908 -3.35728e-07 7.68055C0.744688 6.90935 1.47967 6.14819 2.24442 5.35622C3.93695 7.10902 5.63531 8.86785 7.38284 10.6776C7.3796 7.05943 7.37637 3.52369 7.37314 -4.64515e-07C8.48014 0.00133964 9.52115 0.00200972 10.6023 0.00334983C10.5971 3.51163 10.5926 7.04939 10.5874 10.6783C12.3427 8.86048 14.0346 7.10835 15.7426 5.33947C16.5067 6.13077 17.2469 6.89729 18 7.6772C15.0031 10.7808 12.014 13.8763 8.99773 17L8.99773 16.9987Z" fill="white"/>
</svg>
