<svg width="27" height="27" viewBox="0 0 27 27" fill="none" xmlns="http://www.w3.org/2000/svg">
<path d="M27 4.84369C25.3354 3.17146 23.779 1.60907 22.2116 0.0343232C17.1286 5.13475 12.0265 10.253 6.92434 15.3713L6.75582 15.3027C6.75582 10.2146 6.75582 5.12651 6.75582 0C4.45684 0 2.25514 0 0 0C0 8.98719 0 17.9689 0 27C8.97945 27 17.9466 27 26.952 27C26.952 24.7662 26.952 22.5613 26.952 20.2603C21.8581 20.2603 16.7738 20.2603 11.5908 20.2603C16.7943 15.0542 21.9006 9.94686 27.0014 4.84369H27Z" fill="white"/>
</svg>
